<svg width="400" height="377" viewBox="0 0 400 377" fill="none" xmlns="http://www.w3.org/2000/svg">
<g clip-path="url(#clip0_114_2151)">
<path d="M367.425 230.606H34.8458C26.8458 230.606 21.4541 222.831 24.7416 215.954C25.8125 213.724 27.2458 211.78 29.1666 210.609C36.4416 206.188 65.2958 201.098 65.2958 201.098C65.2958 201.098 68.2708 183.034 88.0458 178.871C107.817 174.712 110.854 170.274 116.929 160.688C123.004 151.102 148.821 132.519 164.008 137.519C179.192 142.518 189.062 117.298 189.062 117.298C189.062 117.298 178.433 104.602 192.1 93.1583C205.767 81.7108 222.471 89.5807 222.471 89.5807C222.471 89.5807 243.454 80.2853 254.983 86.0071C266.512 91.7249 270.8 103.981 272.833 107.512C274.867 111.042 296.125 109.789 303.717 122.576C311.312 135.367 305.996 144.356 312.829 150.949C319.667 157.543 339.408 159.506 347 181.416C354.592 203.325 356.871 207.052 365.225 211.984C367.037 213.056 368.962 213.873 370.867 214.635C379.717 218.185 377.046 230.606 367.425 230.606Z" fill="#7F453D"/>
<path d="M160.567 218.102C150.758 218.102 138.533 217.223 126.746 216.343C125.696 216.264 124.65 216.186 123.608 216.107C127.85 205.288 136.296 193.354 153.104 189.439C159.079 188.044 164.992 187.503 170.725 187.503C180.808 187.503 190.35 189.179 198.737 190.852C207.125 192.529 214.362 194.206 219.842 194.206C223.075 194.206 225.7 193.621 227.579 192.109C229.071 190.911 230.929 189.757 233.087 188.736L233.137 194.917L234.892 195.141L237.937 211.281L240.725 210.841C239.417 211.344 238.167 211.67 237.025 211.803C236.542 211.858 235.892 211.886 235.1 211.886C232.2 211.886 227.375 211.552 221.717 211.218C217.462 210.967 212.737 210.716 208.012 210.606L208.25 209.757L208.929 207.334C208.992 207.107 209.033 206.879 209.054 206.651C209.229 204.731 207.921 202.908 205.875 202.406L196.883 200.179C196.483 200.081 196.075 200.03 195.671 200.03C194.712 200.03 193.775 200.301 192.971 200.815L191.967 201.463L189.4 200.827C189.404 200.768 189.404 200.705 189.404 200.643C189.404 199.284 188.429 198.086 187.021 197.736L179.446 195.859C179.408 195.851 179.371 195.844 179.337 195.832C179.087 195.781 178.842 195.749 178.596 195.738C178.537 195.734 178.479 195.734 178.421 195.734C176.637 195.734 175.004 196.861 174.529 198.565L172.958 198.176C172.737 198.121 172.521 198.094 172.304 198.094C171.337 198.094 170.442 198.612 170.004 199.433C169.929 199.578 169.867 199.735 169.817 199.9L169.729 200.218L168.992 202.865C168.629 204.161 169.45 205.485 170.825 205.822L172.396 206.215C171.833 208.241 173.117 210.311 175.267 210.845L182.837 212.722C183.012 212.765 183.187 212.793 183.362 212.809C181.771 213.382 180.471 214.093 179.546 214.961C177.042 217.305 169.896 218.102 160.567 218.102ZM127.225 214.501C129.658 215.679 132.45 216.276 135.271 216.276C142.221 216.276 149.337 212.636 151.675 205.053C148.896 204.102 146.375 203.702 144.1 203.702C132.321 203.702 127.246 214.454 127.225 214.501ZM185.733 212.098C186.054 211.835 186.325 211.509 186.525 211.128L188.275 211.564C187.383 211.721 186.533 211.898 185.733 212.098ZM246.158 207.963L246.071 206.985L242.642 204.738L246.108 204.102L246.617 202.724L242.629 199.641L247.925 198.989L248.35 197.976L248.792 196.931L251.146 197.238L253.2 190.495L254.854 190.711L255.112 188.936L253.242 188.696C253.271 187.412 253.029 186.175 252.55 185.036C256.075 185.209 259.762 185.822 263.525 187.004C261.383 188.382 259.742 189.996 258.958 192.109C256.437 198.875 251.333 204.475 246.158 207.963Z" fill="#5C2E29"/>
<path d="M29.4625 229.302C24.8625 226.891 22.4 221.527 24.4958 216.516C22.45 221.527 24.875 226.891 29.4625 229.302Z" fill="#A5A7A6"/>
<path d="M367.425 230.606H320.329C308.746 222.756 296.3 213.386 287.167 203.046C279.55 194.43 271.383 189.474 263.525 187.004C272.529 181.207 290.383 179.593 290.708 163.025C291.042 146.335 282.179 141.018 267.85 133.442C267.854 133.407 267.863 133.372 267.867 133.336C268.021 132.555 267.425 131.824 266.583 131.738C264.558 131.526 261.496 130.846 262.021 128.663C262.35 127.285 263.267 126.809 264.292 126.809C264.758 126.809 265.25 126.908 265.713 127.065C265.858 127.112 266.004 127.135 266.15 127.135C266.883 127.135 267.533 126.538 267.488 125.796C267.425 124.811 267.558 124.037 268.146 123.291C268.638 122.67 268.304 121.783 267.513 121.571C266.45 121.28 265.492 120.836 264.775 120.444C264.558 120.322 264.317 120.267 264.079 120.267C263.604 120.267 263.146 120.495 262.896 120.907C262.429 121.692 261.667 122.549 260.546 122.549C260.279 122.549 260 122.501 259.692 122.395C257.967 121.783 258.488 120.169 259.446 119.061C259.913 118.523 259.679 117.703 258.979 117.479C257.967 117.149 256.946 116.057 256.163 114.969C255.908 114.62 255.513 114.447 255.113 114.447C254.717 114.447 254.321 114.62 254.067 114.969C253.696 115.488 253.267 116.006 252.813 116.442C242.071 95.5931 222.475 89.5807 222.475 89.5807C222.688 89.4864 234.842 84.1456 245.675 84.1456C246.4 84.1456 247.121 84.1692 247.833 84.2202C249.608 84.3498 251.321 84.6483 252.908 85.1627C253.629 85.3984 254.321 85.6772 254.983 86.0071C258.204 87.6054 260.863 89.7103 263.058 91.9959C268.733 97.8904 271.371 104.967 272.833 107.512C274.867 111.042 296.125 109.786 303.717 122.576C309.404 132.154 307.854 139.6 309.583 145.506L306.808 145.883L308.95 159.95L310.421 169.626C307.392 170.039 305.279 172.686 305.717 175.545L306.546 180.976L307.133 184.832L308.85 196.126L310.808 208.968C311.021 210.382 312.313 211.407 313.788 211.407C313.933 211.407 314.075 211.395 314.221 211.375L316.963 211.006L316.125 214.784C315.783 216.319 316.758 217.839 318.354 218.267L326.567 220.486C326.854 220.565 327.146 220.6 327.438 220.6C328.5 220.6 329.517 220.097 330.108 219.222L330.713 218.334C331.713 216.854 331.154 214.89 329.504 214.077L325.967 212.341C325.2 211.964 324.629 211.308 324.392 210.523L324.233 210.024L327.188 209.624C328.288 209.475 329.158 208.787 329.55 207.884C329.75 207.432 329.825 206.926 329.742 206.407L327.758 193.366C329.108 196.181 332.117 198.055 335.475 198.055C335.721 198.055 335.975 198.043 336.221 198.023C339.742 197.733 342.704 195.412 343.654 192.203C344.858 188.115 342.463 183.85 338.196 182.492L333.863 181.117C333.233 180.917 332.604 180.823 331.992 180.823C329.421 180.823 327.154 182.472 326.446 184.75L324.654 172.984C324.438 171.555 323.625 170.341 322.483 169.54C321.55 168.88 320.392 168.499 319.167 168.499C318.904 168.499 318.642 168.515 318.371 168.554L316.9 158.874L316.05 153.313C319.654 155.461 324.583 157.409 329.571 160.402C336.329 164.458 343.192 170.431 347 181.416C354.592 203.325 356.871 207.052 365.225 211.984C367.038 213.056 368.963 213.873 370.867 214.635C374.575 216.123 376.258 219.167 376.258 222.202C376.258 226.412 373.017 230.606 367.425 230.606ZM289.942 117.322C287.375 117.322 285.292 119.285 285.292 121.704C285.292 124.123 287.375 126.083 289.942 126.083C292.513 126.083 294.592 124.123 294.592 121.704C294.592 119.285 292.513 117.322 289.942 117.322ZM119.846 230.606H34.8459C32.8667 230.606 31.0375 230.127 29.4625 229.302C24.875 226.891 22.45 221.527 24.4959 216.516C24.55 216.386 24.6084 216.257 24.6667 216.131C24.6959 216.068 24.725 216.005 24.7542 215.942C28.0084 217.301 31.9209 218.157 36.2209 218.64C36.8667 219.571 37.9792 220.211 39.2792 220.211C39.4125 220.211 39.55 220.203 39.6875 220.188L42.5709 219.897C43.4125 219.811 44.1917 219.548 44.8667 219.147C45.3625 219.151 45.8584 219.155 46.3625 219.155C61.4834 219.155 78.4334 216.327 88.075 214.992C89.5625 216.504 91.8042 217.824 95.1042 217.824C97.0375 217.824 99.3334 217.372 102.054 216.245C102.054 216.245 102.05 216.241 102.046 216.241C101.975 216.19 101.275 215.703 100.521 214.674C107.15 214.894 115.2 215.483 123.613 216.107C121.442 221.633 120.375 226.872 119.846 230.606Z" fill="#5C2E29"/>
<path d="M320.329 230.606H119.846C120.375 226.872 121.442 221.637 123.612 216.107C124.65 216.186 125.696 216.264 126.75 216.343C138.533 217.223 150.758 218.098 160.567 218.098C169.9 218.098 177.042 217.305 179.546 214.957C180.475 214.093 181.771 213.382 183.362 212.809C183.462 212.813 183.558 212.82 183.654 212.82C184.421 212.82 185.158 212.557 185.733 212.094C186.533 211.898 187.383 211.721 188.275 211.564L189.092 211.768L189.629 212.797C190.242 213.967 191.367 214.831 192.704 215.165L201.696 217.388C202.062 217.478 202.425 217.521 202.787 217.521C204.688 217.521 206.421 216.323 206.929 214.513L207.471 212.561L207.929 210.924L208.017 210.606C212.737 210.715 217.467 210.967 221.721 211.218C227.375 211.552 232.2 211.886 235.1 211.886C235.896 211.886 236.546 211.858 237.025 211.803C238.171 211.67 239.421 211.34 240.729 210.841L242.517 210.562L246.333 209.961L246.158 207.963C251.333 204.475 256.438 198.875 258.958 192.105C259.742 189.996 261.387 188.382 263.525 187.004C271.387 189.474 279.55 194.43 287.167 203.046C296.3 213.386 308.742 222.756 320.329 230.606Z" fill="#3D1F1C"/>
<path d="M271.558 222.155L282.946 214.046L280.671 192.702L277.254 193.299L271.05 202.838L273.963 206.655L271.05 209.278L265.104 211.183V212.974L268.9 215.833L266.371 220.364L271.558 222.155Z" fill="#6EBDE3"/>
<path d="M286.875 208.202L288.392 212.734L294.467 214.76L299.275 210.468L296.492 204.032L299.275 199.382L296.362 196.759L292.312 191.273L289.025 193.421L286.875 208.202Z" fill="#6EBDE3"/>
<path d="M283.833 219.65L288.013 218.098L294.592 223.345L287.754 227.995L281.808 226.683L283.833 219.65Z" fill="#6EBDE3"/>
<path d="M122.9 174.347C122.9 171.645 124.029 169.194 125.863 167.38C123.546 166.795 121.838 164.808 121.838 162.44C121.838 161.67 122.021 160.944 122.346 160.292C121.188 159.985 119.971 159.809 118.708 159.809C111.304 159.809 105.304 165.464 105.304 172.438C105.304 179.413 111.304 185.068 118.708 185.068C121.858 185.068 124.75 184.035 127.038 182.319C124.525 180.469 122.9 177.587 122.9 174.347Z" fill="#BF2136"/>
<path d="M111.054 171.453C109.221 171.453 107.733 170.051 107.733 168.323C107.733 166.595 109.221 165.193 111.054 165.193C112.887 165.193 114.379 166.595 114.379 168.323C114.379 170.051 112.887 171.453 111.054 171.453Z" fill="#D52842"/>
<path d="M97.8542 199.288C97.7584 199.299 97.6584 199.299 97.5625 199.276C97.1792 199.182 96.9459 198.816 97.0459 198.455L97.975 195.039C98.0709 194.677 98.4584 194.461 98.8459 194.552C99.2292 194.646 99.4625 195.015 99.3625 195.376L98.4334 198.789C98.3625 199.056 98.125 199.245 97.8542 199.288Z" fill="#5C2E29"/>
<path d="M88.0208 212.86L85.4458 210.551C85.4458 210.551 90.8833 210.056 91.775 205.563C92.6625 201.071 89.3958 199.08 89.3958 199.08L97.6916 198.326L104.437 201.777C104.437 201.777 98.2916 202.425 98.575 208.673C98.7708 214.085 102.054 216.245 102.054 216.245L94.0291 216.127L88.0208 212.86Z" fill="#DEB85C"/>
<path d="M85.4458 210.551C85.4458 210.551 88.4125 221.9 102.054 216.245C97.65 215.459 96.4208 212.263 96.4208 212.263C96.4208 212.263 91.9625 215.298 89.2333 210.629C87.8041 211.607 85.4458 210.551 85.4458 210.551Z" fill="#91A321"/>
<path d="M89.3959 199.08C89.3959 199.08 98.5292 192.478 104.438 201.777C101.883 200.568 99.5334 202.225 99.5334 202.225C99.5334 202.225 98.2834 199.712 93.3917 201.173C91.9375 199.272 89.3959 199.08 89.3959 199.08Z" fill="#91A321"/>
<path d="M104.438 201.777C104.346 201.64 104.258 201.503 104.167 201.369C104.258 201.503 104.35 201.64 104.438 201.777Z" fill="#5C2E29"/>
<path d="M102.054 216.245C97.6499 215.459 96.4208 212.263 96.4208 212.263C96.4208 212.263 96.2624 212.373 95.9833 212.518L98.8416 201.479C99.3458 201.852 99.5333 202.225 99.5333 202.225C99.5333 202.225 100.796 201.338 102.475 201.338C103.087 201.338 103.754 201.455 104.437 201.777C104.437 201.777 102.462 201.986 100.8 203.305C99.5333 204.314 98.4499 205.968 98.5749 208.673C98.5999 209.329 98.6666 209.938 98.7708 210.5C99.1166 212.381 99.8416 213.747 100.521 214.674C101.275 215.703 101.975 216.19 102.046 216.241C102.05 216.241 102.054 216.245 102.054 216.245Z" fill="#D6A441"/>
<path d="M95.1292 217.812C94.9584 217.812 94.7875 217.808 94.6167 217.8L95.9834 212.518C96.2625 212.373 96.4209 212.263 96.4209 212.263C96.4209 212.263 97.65 215.459 102.054 216.245C99.3375 217.368 97.0584 217.812 95.1292 217.812Z" fill="#738323"/>
<path d="M99.5333 202.225C99.5333 202.225 99.3458 201.852 98.8417 201.479L99.8542 197.556C101.346 198.227 102.825 199.402 104.154 201.349V201.353C104.158 201.357 104.163 201.361 104.167 201.369C104.258 201.503 104.346 201.64 104.438 201.777C103.754 201.455 103.088 201.338 102.475 201.338C100.796 201.338 99.5333 202.225 99.5333 202.225Z" fill="#738323"/>
<path d="M202.504 150.474C202.504 150.474 221.683 137.377 237.3 155.029C225.962 165.197 209.308 160.48 202.504 150.474Z" fill="#91A321"/>
<path d="M210.4 197.75C209.508 197.656 208.621 197.511 207.75 197.318C205.896 194.875 203.663 191.969 201.946 189.751L193.725 188.663C193.483 188.349 193.246 188.027 193.025 187.701C193.017 187.689 193.008 187.677 193 187.669C193.004 187.665 193.446 187.371 194.225 186.931L198.083 187.442L198.117 187.414C202.283 185.439 205.279 184.033 207.454 183.031C207.867 183.012 208.279 183 208.7 183C209.617 183 210.554 183.051 211.508 183.161C209.054 184.265 204.896 186.208 201.358 187.874L206.8 188.592C211.013 186.593 214.013 185.191 216.163 184.202C216.933 184.461 217.708 184.763 218.483 185.117C216.117 186.201 212.929 187.693 210.092 189.028L222.696 190.693C223.213 190.764 223.571 191.212 223.5 191.702C223.433 192.146 223.029 192.468 222.563 192.468C222.521 192.468 222.475 192.464 222.433 192.456L215.663 191.565C217.325 193.717 218.658 195.457 219.733 196.867C219.092 197.071 218.442 197.236 217.788 197.377C216.192 195.284 214.454 193.026 213.058 191.219L204.55 190.092C207.292 193.646 209.142 196.073 210.4 197.75Z" fill="#738323"/>
<path d="M127.225 214.501C127.225 214.501 134.433 199.146 151.679 205.053C148.392 215.707 135.671 218.581 127.225 214.501Z" fill="#E8A81B"/>
<path d="M140.687 215.514C138.504 214.588 135.883 213.496 133.875 212.663L128.096 214.886C127.8 214.764 127.508 214.639 127.225 214.501C127.229 214.493 127.396 214.144 127.721 213.586L130.437 212.542L130.45 212.51C132.362 209.742 133.746 207.758 134.758 206.329C135.583 205.822 136.475 205.363 137.446 204.97C136.292 206.561 134.367 209.31 132.742 211.654L136.567 210.181C138.504 207.378 139.887 205.398 140.892 203.988C141.496 203.878 142.121 203.8 142.771 203.753C141.662 205.304 140.187 207.409 138.883 209.29L147.746 205.877C147.833 205.846 147.925 205.83 148.012 205.83C148.296 205.83 148.558 205.983 148.675 206.247C148.821 206.588 148.646 206.977 148.283 207.118L143.521 208.948C145.471 209.757 147.033 210.413 148.3 210.947C147.962 211.309 147.608 211.65 147.242 211.972C145.362 211.179 143.325 210.331 141.687 209.655L135.708 211.96C138.917 213.288 141.096 214.211 142.587 214.851C141.967 215.106 141.333 215.33 140.687 215.514Z" fill="#E58E1A"/>
<path d="M267.508 121.571C266.45 121.284 265.492 120.836 264.775 120.444C264.121 120.082 263.267 120.287 262.896 120.911C262.321 121.881 261.288 122.957 259.692 122.395C257.967 121.787 258.488 120.169 259.442 119.065C259.913 118.523 259.679 117.703 258.979 117.479C257.967 117.149 256.946 116.057 256.163 114.973C255.654 114.274 254.571 114.274 254.067 114.973C253.283 116.057 252.258 117.149 251.25 117.479C250.55 117.703 250.317 118.523 250.783 119.065C251.738 120.169 252.263 121.787 250.538 122.395C248.942 122.957 247.908 121.881 247.329 120.911C246.958 120.287 246.108 120.082 245.45 120.444C244.733 120.836 243.779 121.284 242.717 121.571C241.925 121.787 241.592 122.67 242.083 123.295C242.671 124.041 242.8 124.811 242.742 125.796C242.688 126.684 243.625 127.363 244.513 127.065C246 126.566 247.725 126.652 248.208 128.663C248.733 130.846 245.667 131.526 243.642 131.738C242.804 131.828 242.204 132.555 242.358 133.336C242.558 134.342 242.717 135.747 242.496 137.244C242.408 137.864 242.908 138.414 243.571 138.457C244.921 138.544 246.275 139.034 247.371 139.557C248.154 139.93 249.092 139.388 249.058 138.559C249.017 137.57 249.392 136.564 250.883 136.187C254.2 135.351 254.604 139.227 254.604 139.227L254.367 143.044L255.113 143.201L255.858 143.044L255.625 139.227C255.625 139.227 256.029 135.351 259.342 136.187C260.833 136.564 261.208 137.57 261.167 138.559C261.133 139.388 262.075 139.93 262.858 139.557C263.954 139.034 265.304 138.544 266.654 138.457C267.317 138.414 267.821 137.864 267.729 137.244C267.513 135.747 267.667 134.342 267.867 133.336C268.021 132.555 267.425 131.828 266.583 131.738C264.558 131.526 261.492 130.846 262.021 128.663C262.504 126.652 264.229 126.566 265.713 127.065C266.6 127.363 267.542 126.684 267.488 125.796C267.425 124.811 267.554 124.041 268.146 123.295C268.638 122.67 268.304 121.787 267.508 121.571Z" fill="#F2592B"/>
<path d="M255.625 139.227C255.625 139.227 255.663 138.842 255.821 138.343C255.667 138.842 255.625 139.227 255.625 139.227Z" fill="#5C2E29"/>
<path d="M255.113 143.201L254.863 143.15L254.404 143.052V142.451L254.604 139.227C254.604 139.227 254.563 138.842 254.404 138.343V134.84C253.767 134.078 252.996 133.643 252.046 133.54C251.883 133.521 251.721 133.513 251.558 133.513C248.704 133.513 245.554 136.073 245.521 136.101C245.392 136.211 245.225 136.266 245.058 136.266C244.858 136.266 244.663 136.187 244.525 136.034C244.267 135.755 244.296 135.335 244.592 135.092C244.733 134.978 247.633 132.629 250.742 132.241L249.929 129.664C249.817 129.311 250.033 128.942 250.404 128.836C250.475 128.816 250.542 128.808 250.613 128.808C250.913 128.808 251.196 128.997 251.288 129.287L252.213 132.213C253.029 132.303 253.754 132.586 254.404 133.018V131.463C254.05 130.721 251.55 125.949 244.858 124.108C244.483 124.006 244.271 123.636 244.379 123.283C244.467 122.988 244.754 122.8 245.058 122.8C245.125 122.8 245.192 122.808 245.258 122.827C250.121 124.167 252.929 126.876 254.404 128.828V117.816C254.404 117.447 254.725 117.149 255.113 117.149C255.504 117.149 255.821 117.447 255.821 117.816V128.828C257.296 126.876 260.108 124.167 264.967 122.827C265.038 122.808 265.104 122.8 265.171 122.8C265.475 122.8 265.758 122.988 265.846 123.283C265.958 123.636 265.742 124.006 265.367 124.108C258.65 125.961 256.175 130.717 255.821 131.459V133.018C256.471 132.586 257.196 132.303 258.013 132.213L258.938 129.287C259.029 128.997 259.308 128.808 259.617 128.808C259.683 128.808 259.75 128.816 259.821 128.836C260.192 128.942 260.408 129.311 260.296 129.664L259.488 132.237C262.588 132.629 265.492 134.978 265.633 135.092C265.929 135.335 265.958 135.755 265.7 136.034C265.563 136.187 265.367 136.266 265.167 136.266C265 136.266 264.838 136.211 264.7 136.101C264.671 136.073 261.508 133.513 258.658 133.513C258.5 133.513 258.338 133.521 258.179 133.54C257.229 133.643 256.458 134.078 255.821 134.84V138.343C255.663 138.842 255.625 139.227 255.625 139.227L255.817 142.372L255.821 142.459V143.052L255.521 143.115L255.113 143.201Z" fill="#F04127"/>
<path d="M187.021 197.736L179.45 195.859C177.296 195.329 175.096 196.539 174.529 198.565L173.462 202.39L172.396 206.211C171.833 208.238 173.117 210.311 175.267 210.845L182.842 212.718C184.312 213.087 185.858 212.42 186.525 211.128L189.092 211.768L189.629 212.797C190.242 213.967 191.362 214.831 192.704 215.165L201.696 217.388C203.983 217.957 206.325 216.669 206.925 214.513L207.471 212.561L207.929 210.924L208.383 209.282L208.929 207.33C209.529 205.174 208.162 202.971 205.875 202.402L196.883 200.179C195.546 199.845 194.117 200.077 192.971 200.815L191.967 201.463L189.4 200.827C189.492 199.394 188.496 198.102 187.021 197.736Z" fill="#6EBDE3"/>
<path d="M169.821 199.9L168.992 202.865C168.633 204.157 169.45 205.485 170.825 205.822L172.396 206.211L174.529 198.565L172.958 198.172C171.583 197.835 170.179 198.608 169.821 199.9Z" fill="#F2592B"/>
<path d="M208.254 209.757L208.383 209.282L208.929 207.33L208.254 209.757Z" fill="#3D1F1C"/>
<path d="M208.254 209.757L190.854 205.449L191.967 201.463L189.4 200.827L188.287 204.813L173.792 201.224L174.529 198.565C175.004 196.861 176.637 195.734 178.421 195.734C178.479 195.734 178.537 195.734 178.6 195.738C178.842 195.749 179.087 195.781 179.337 195.832C179.375 195.844 179.408 195.852 179.45 195.859L187.021 197.737C188.433 198.082 189.404 199.284 189.404 200.643C189.404 200.705 189.404 200.764 189.4 200.827L191.967 201.463L192.971 200.815C193.775 200.301 194.717 200.03 195.671 200.03C196.075 200.03 196.483 200.077 196.883 200.179L205.875 202.402C207.921 202.908 209.229 204.731 209.054 206.651C209.033 206.879 208.992 207.103 208.929 207.33L208.383 209.282L208.254 209.757Z" fill="#58A6DC"/>
<path d="M173.792 201.224L169.729 200.218L169.821 199.9C169.867 199.735 169.929 199.578 170.008 199.429C170.442 198.612 171.337 198.094 172.304 198.094C172.521 198.094 172.737 198.121 172.958 198.172L174.529 198.565L173.792 201.224Z" fill="#F04127"/>
<path d="M189.092 211.768L186.525 211.128L188.288 204.813L190.854 205.449L189.092 211.768Z" fill="#58A6DC"/>
<path d="M130.567 220.266L128 219.63L129.113 215.644L131.679 216.28L130.567 220.266Z" fill="#4988CF"/>
<path d="M209.708 106.903L189.967 126.377L182.183 119.375L201.929 99.9011L209.708 106.903Z" fill="#D3C3C7"/>
<path d="M207.046 109.526L202.308 105.262L203.479 104.103L208.217 108.372L207.896 108.69L207.046 109.526Z" fill="#E0D4D6"/>
<path d="M205.563 110.991L207.046 109.526L199.267 102.524L197.779 103.989L205.563 110.991Z" fill="#B79FA6"/>
<path d="M199.583 114.632C199.317 114.632 199.05 114.541 198.842 114.353L195.833 111.643L197.317 110.182L200.325 112.888C200.754 113.273 200.771 113.913 200.358 114.317C200.15 114.529 199.867 114.632 199.583 114.632Z" fill="#C7B4B8"/>
<path d="M189.754 113.057C188.704 114.094 189.321 116.253 191.133 117.883C192.946 119.513 195.267 119.996 196.317 118.959C197.367 117.922 196.754 115.759 194.942 114.129C193.129 112.499 190.808 112.02 189.754 113.057Z" fill="#BF2136"/>
<path d="M180.162 126.982L182.396 128.993L187.783 124.414L184.771 121.704L180.162 126.982Z" fill="#BF2136"/>
<path d="M185.225 122.109L184.771 121.704L182.183 119.375L197.779 103.989L200.821 106.726L197.317 110.182L196.008 109.004C195.8 108.816 195.533 108.725 195.267 108.725C194.983 108.725 194.7 108.831 194.492 109.035C194.079 109.444 194.096 110.084 194.525 110.469L195.833 111.643L194.025 113.43C193.096 112.829 192.121 112.507 191.288 112.507C190.667 112.507 190.129 112.684 189.754 113.057C188.875 113.925 189.167 115.582 190.346 117.055L185.225 122.109ZM203.479 104.103L201.296 102.14C201.946 101.821 202.508 101.358 202.929 100.8L204.967 102.634L203.479 104.103Z" fill="#C7B4B8"/>
<path d="M202.308 105.262L199.383 102.63C200.071 102.599 200.717 102.422 201.296 102.14L203.479 104.103L202.308 105.262Z" fill="#D8C8CC"/>
<path d="M200.821 106.726L197.779 103.989L199.154 102.634C199.229 102.634 199.304 102.634 199.383 102.63L202.308 105.262L200.821 106.726Z" fill="#A3868D"/>
<path d="M195.833 111.643L194.525 110.469C194.096 110.084 194.079 109.444 194.492 109.035C194.7 108.831 194.983 108.725 195.267 108.725C195.533 108.725 195.8 108.816 196.008 109.004L197.317 110.182L195.833 111.643Z" fill="#B79FA6"/>
<path d="M190.346 117.055C189.167 115.582 188.875 113.925 189.754 113.057C190.129 112.684 190.667 112.507 191.287 112.507C192.121 112.507 193.096 112.829 194.025 113.43L190.346 117.055Z" fill="#AB1B2A"/>
<path d="M238.171 208.599L244.017 178.725C244.229 177.649 244.958 176.731 245.992 176.232L257.229 170.848C257.708 170.62 258.288 170.773 258.567 171.201C258.883 171.688 258.688 172.32 258.15 172.572L246.971 177.83C246.442 178.078 246.063 178.545 245.95 179.091L239.708 208.878C239.629 209.259 239.246 209.518 238.833 209.467C238.392 209.408 238.092 209.015 238.171 208.599Z" fill="#91A321"/>
<path d="M253.192 189.439C253.738 184.408 249.958 179.841 244.6 179.15C239.246 178.458 234.3 181.903 233.392 186.886L253.192 189.439Z" fill="#87D4EB"/>
<path d="M234.558 193.366L237.938 211.281L246.333 209.962L246.075 206.985L242.642 204.738L246.113 204.098L246.617 202.72L242.629 199.641L247.925 198.989L249.683 194.811L234.558 193.366Z" fill="#6EBDE3"/>
<path d="M243.175 198.125L241.992 197.972L242.383 196.107L244.729 196.409L243.175 198.125ZM240.292 197.756L235.262 197.104L234.892 195.141L240.658 195.887L240.292 197.756Z" fill="#58A6DC"/>
<path d="M245.354 192.085L243.279 191.818L243.812 189.285L245.725 189.533L245.354 192.085ZM241.5 191.587L233.104 190.503L233.083 187.903L241.996 189.05L241.5 191.587Z" fill="#58A6DC"/>
<path d="M253.233 188.696L245.983 187.758L247.137 179.813C250.858 181.294 253.329 184.797 253.233 188.696Z" fill="#6FC6E6"/>
<path d="M242.517 210.562L241.329 201.153L241.596 199.877L243.175 198.125L248.025 198.75L248.792 196.931L248.354 197.972L247.925 198.989L242.633 199.641L246.617 202.72L246.112 204.098L242.646 204.739L246.075 206.985L246.333 209.962L242.517 210.562Z" fill="#58A6DC"/>
<path d="M248.025 198.75L243.175 198.125L244.729 196.409L248.792 196.931L248.025 198.75Z" fill="#4988CF"/>
<path d="M251.146 197.238L248.788 196.935L244.729 196.409L245.354 192.085L252.438 192.997L253.2 190.495L251.146 197.238ZM254.854 190.711L253.2 190.495L245.725 189.533L245.983 187.758L253.233 188.696L255.113 188.936L254.854 190.711Z" fill="#58A6DC"/>
<path d="M252.437 192.997L245.358 192.085L245.725 189.533L253.2 190.495L252.437 192.997Z" fill="#4988CF"/>
<path d="M231.683 185.916L231.425 187.687L233.083 187.903L233.138 194.917L251.146 197.238L253.2 190.495L254.854 190.711L255.113 188.936L231.683 185.916Z" fill="#6EBDE3"/>
<path d="M245.883 179.397C245.467 179.291 245.037 179.209 244.6 179.15C244.383 179.122 244.162 179.102 243.946 179.087L244.017 178.725C244.225 177.649 244.954 176.731 245.992 176.236L257.229 170.848C257.375 170.777 257.537 170.746 257.692 170.746C258.037 170.746 258.375 170.911 258.567 171.205C258.671 171.362 258.717 171.535 258.717 171.708C258.717 172.061 258.512 172.403 258.15 172.572L246.967 177.83C246.442 178.081 246.062 178.545 245.946 179.091L245.883 179.397Z" fill="#91A321"/>
<path d="M244.179 187.526L242.342 187.287L243.946 179.087C244.163 179.102 244.383 179.122 244.6 179.15C245.042 179.205 245.471 179.291 245.883 179.397L244.179 187.526Z" fill="#88BD6F"/>
<path d="M238.942 209.471C238.904 209.471 238.871 209.471 238.833 209.467C238.392 209.408 238.092 209.015 238.171 208.603L240.292 197.756L241.992 197.972L241.592 199.877L241.217 200.293L241.325 201.153L239.708 208.878C239.638 209.227 239.308 209.471 238.942 209.471Z" fill="#78B16D"/>
<path d="M241.996 197.972L240.296 197.752L240.658 195.887L242.383 196.107L241.996 197.972Z" fill="#6BA76B"/>
<path d="M242.383 196.107L240.662 195.887L241.5 191.587L243.283 191.818L242.383 196.107ZM243.817 189.285L242 189.05L242.342 187.287L244.183 187.526L243.817 189.285Z" fill="#78B16D"/>
<path d="M243.283 191.818L241.5 191.587L242 189.05L243.817 189.285L243.283 191.818Z" fill="#6BA76B"/>
<path d="M241.325 201.153L241.221 200.293L241.596 199.877L241.325 201.153Z" fill="#6BA76B"/>
<path d="M193.512 183.532C193.221 183.532 192.929 183.493 192.642 183.414L184.429 181.2C182.833 180.768 181.858 179.248 182.2 177.716L183.612 171.37C183.879 170.161 184.908 169.234 186.2 169.033C186.375 169.01 186.546 168.994 186.717 168.994C188.104 168.994 189.358 169.858 189.758 171.15L190.467 173.451C190.708 174.237 191.275 174.893 192.046 175.27L195.583 177.009C197.229 177.818 197.787 179.786 196.787 181.262L196.187 182.15C195.596 183.026 194.575 183.532 193.512 183.532Z" fill="#5C2E29"/>
<path d="M327.437 220.6C327.146 220.6 326.854 220.565 326.562 220.486L318.35 218.267C316.754 217.839 315.783 216.319 316.125 214.784L316.962 211.006L317.683 210.908L319.542 210.657L321.867 210.342L323.721 210.091L324.233 210.024L324.387 210.523C324.629 211.308 325.2 211.964 325.967 212.341L329.504 214.077C331.154 214.89 331.712 216.857 330.708 218.334L330.108 219.222C329.517 220.097 328.5 220.6 327.437 220.6Z" fill="#3D1F1C"/>
<path d="M264.954 162.432C260.9 162.432 257.362 159.703 256.617 155.882L255.796 151.644C255.121 148.169 258.021 145.2 261.471 145.2C262.083 145.2 262.712 145.294 263.342 145.495L267.675 146.873C271.937 148.232 274.337 152.493 273.129 156.581C272.183 159.793 269.221 162.11 265.7 162.401C265.45 162.42 265.2 162.432 264.954 162.432Z" fill="#5C2E29"/>
<path d="M335.475 198.055C332.112 198.055 329.108 196.181 327.754 193.366L326.446 184.75C327.15 182.472 329.421 180.823 331.992 180.823C332.604 180.823 333.233 180.917 333.858 181.117L338.192 182.492C342.462 183.85 344.854 188.115 343.65 192.203C342.704 195.412 339.742 197.733 336.221 198.023C335.971 198.043 335.721 198.055 335.475 198.055Z" fill="#3D1F1C"/>
<path d="M158.596 160.162C156.275 159.074 154.521 157.005 154.025 154.444L153.2 150.203C152.529 146.732 155.425 143.763 158.875 143.763C159.487 143.763 160.117 143.857 160.746 144.057L165.079 145.436C166.187 145.785 167.167 146.335 167.992 147.022C167.283 147.556 166.933 148.436 167.142 149.3L167.408 150.403C167.683 151.53 167.012 152.669 165.854 153.05L162.625 154.111C162.042 154.303 161.558 154.7 161.275 155.222L160.004 157.562L159.512 158.474L158.954 159.502L158.617 160.115L158.596 160.162Z" fill="#5C2E29"/>
<path d="M199.146 102.634C196.579 102.634 194.496 100.675 194.496 98.2556C194.496 95.8326 196.579 93.873 199.146 93.873C201.713 93.873 203.796 95.8326 203.796 98.2556C203.796 99.206 203.475 100.082 202.929 100.8L201.929 99.9011L200.438 101.37L199.267 102.524L199.154 102.634C199.15 102.634 199.146 102.634 199.146 102.634Z" fill="#5C2E29"/>
<path d="M201.296 102.14L200.438 101.37L201.929 99.9011L202.929 100.8C202.508 101.358 201.946 101.821 201.296 102.14Z" fill="#B79FA6"/>
<path d="M199.383 102.63L199.267 102.524L200.437 101.37L201.296 102.14C200.717 102.422 200.071 102.599 199.383 102.63Z" fill="#CCB9BD"/>
<path d="M199.154 102.635L199.267 102.524L199.384 102.631C199.305 102.635 199.229 102.635 199.154 102.635Z" fill="#88646F"/>
<path d="M289.942 126.087C287.371 126.087 285.287 124.123 285.287 121.704C285.287 119.285 287.371 117.322 289.942 117.322C292.508 117.322 294.592 119.285 294.592 121.704C294.592 124.123 292.508 126.087 289.942 126.087Z" fill="#3D1F1C"/>
<path d="M138.567 175.293C135.996 175.293 133.917 173.33 133.917 170.911C133.917 168.492 135.996 166.528 138.567 166.528C141.133 166.528 143.217 168.492 143.217 170.911C143.217 173.33 141.133 175.293 138.567 175.293Z" fill="#A45E50"/>
<path d="M80.7333 194.505C78.3541 194.505 76.1916 193.008 75.5458 190.758C74.9624 188.72 75.7791 186.552 77.5999 185.319C78.5458 184.683 79.6458 184.369 80.7333 184.369C82.2416 184.369 83.7374 184.966 84.7958 186.108L86.6999 188.17C88.5374 190.161 87.4291 193.275 84.6916 193.825L81.8583 194.391C81.4791 194.469 81.1041 194.505 80.7333 194.505Z" fill="#A45E50"/>
<path d="M44.8626 219.147C41.8751 219.108 38.9709 218.951 36.2209 218.644C35.5917 217.733 35.4001 216.547 35.9126 215.404L37.0417 212.887C37.9042 210.963 39.8917 209.793 41.9959 209.793C42.6001 209.793 43.2167 209.887 43.8167 210.091C45.9251 210.806 47.3459 212.679 47.3751 214.792C47.4001 216.61 46.4001 218.232 44.8626 219.147Z" fill="#A45E50"/>
<path d="M39.2792 220.211C37.9792 220.211 36.8667 219.571 36.2208 218.644C38.9708 218.951 41.875 219.108 44.8625 219.147C44.1917 219.548 43.4125 219.811 42.5708 219.897L39.6875 220.188C39.55 220.203 39.4125 220.211 39.2792 220.211Z" fill="#7E3E37"/>
<path d="M348.929 212.538C348.363 212.004 343.963 207.173 343.963 207.173L347.983 201.004L353.188 200.466L361.367 205.296L348.929 212.538Z" fill="#B79FA6"/>
<path d="M345.829 214.54L353.658 218.475L364.112 216.508L368.292 208.819L360.887 201.935L350.254 204.44L345.829 214.54Z" fill="#D3C3C7"/>
<path d="M368.292 208.819L360.888 201.935L357.638 202.7C357.838 206.757 358.133 212.129 358.133 212.129C358.133 212.129 352.567 214.505 348.921 216.096L353.658 218.475L364.113 216.508L368.292 208.819Z" fill="#B79FA6"/>
<path d="M318.375 168.554L314.758 144.807L311.942 145.188L309.621 145.502L306.808 145.883L310.421 169.626C307.387 170.039 305.279 172.686 305.717 175.545L310.804 208.968C311.046 210.519 312.571 211.599 314.221 211.375L317.687 210.908L319.542 210.657L321.867 210.342L323.721 210.091L327.187 209.624C328.833 209.4 329.979 207.963 329.742 206.408L324.654 172.984C324.221 170.125 321.408 168.142 318.375 168.554Z" fill="#C7B4B8"/>
<path d="M322.392 199.103L309.571 200.835L306.542 180.976L319.367 179.244L322.392 199.103Z" fill="#E68F3F"/>
<path d="M308.85 196.13L307.129 184.832L307.342 186.203L308.85 196.13Z" fill="#3D1F1C"/>
<path d="M309.954 196.197C309.579 196.197 309.212 196.174 308.85 196.126L307.337 186.203L307.133 184.832C307.808 184.549 308.542 184.345 309.321 184.239C309.725 184.184 310.125 184.157 310.517 184.157C314.021 184.157 317.008 186.25 317.458 189.199C317.958 192.482 315.125 195.577 311.129 196.119C310.733 196.17 310.342 196.197 309.954 196.197Z" fill="#E17130"/>
<path d="M316.896 158.874L314.754 144.807L306.808 145.883L308.95 159.95L316.896 158.874Z" fill="#2E3247"/>
<path d="M308.746 158.599L308.537 157.248L313.837 156.534L314.042 157.884L308.746 158.599Z" fill="#1F222F"/>
<path d="M322.479 169.54C321.546 168.88 320.388 168.499 319.167 168.499C320.392 168.499 321.546 168.88 322.479 169.54Z" fill="#3D1F1C"/>
<path d="M322.029 210.319L320.363 199.378L322.392 199.103L319.367 179.244L317.338 179.515L314.246 159.231L316.9 158.874L318.375 168.554C318.638 168.515 318.904 168.499 319.167 168.499C320.392 168.499 321.546 168.88 322.483 169.54C323.621 170.341 324.438 171.555 324.654 172.984L329.746 206.408C329.825 206.926 329.75 207.432 329.55 207.884C329.158 208.787 328.288 209.475 327.188 209.624L322.029 210.319Z" fill="#B79FA6"/>
<path d="M320.358 199.378L317.338 179.515L319.367 179.244L322.392 199.103L320.358 199.378Z" fill="#E17130"/>
<path d="M314.246 159.235L314.042 157.884L316.692 157.523L316.896 158.874L314.246 159.235ZM313.833 156.534L312.104 145.169L314.754 144.807L316.483 156.176L313.833 156.534Z" fill="#1F222F"/>
<path d="M314.042 157.884L313.838 156.534L316.488 156.172L316.692 157.523L314.042 157.884Z" fill="#161820"/>
<path d="M179.754 143.684L179.108 143.947L179.875 145.73L180.513 145.522C181.088 145.333 181.371 144.721 181.125 144.195C180.896 143.7 180.283 143.472 179.754 143.684Z" fill="#1A1C26"/>
<path d="M161.275 155.222L150.5 175.081C149.563 176.809 150.292 178.926 152.125 179.809L161.213 184.188C163.05 185.072 165.296 184.384 166.233 182.656L176.325 164.062C177.75 161.435 177.658 158.305 176.088 155.756L173.229 151.126C172.704 150.278 173.133 149.186 174.121 148.86L178.425 147.45C179.704 147.03 180.333 145.675 179.788 144.505C179.275 143.405 177.917 142.903 176.746 143.378L168.538 146.716C167.471 147.148 166.883 148.236 167.142 149.3L167.408 150.403C167.683 151.53 167.013 152.669 165.854 153.05L162.625 154.111C162.042 154.303 161.558 154.7 161.275 155.222Z" fill="#E8A81B"/>
<path d="M176.746 143.378L175.312 143.959L177.012 147.914L178.425 147.45C179.704 147.03 180.333 145.675 179.787 144.505C179.275 143.405 177.917 142.903 176.746 143.378Z" fill="#2E3247"/>
<path d="M169.179 163.131L159.512 158.474L160.004 157.562L160.592 156.482L170.258 161.14L169.179 163.131Z" fill="#E58E1A"/>
<path d="M151.817 172.65L167.554 180.23L174.687 167.078L158.954 159.502L151.817 172.65Z" fill="#BF2136"/>
<path d="M160.167 179.739L150.5 175.081L151.325 173.557L160.996 178.215L160.167 179.739Z" fill="#E58E1A"/>
<path d="M162 176.361L152.333 171.704L153.158 170.18L162.829 174.838L162 176.361Z" fill="#AB1B2A"/>
<path d="M165.963 164.871C164.175 164.011 161.85 164.934 160.763 166.936C159.679 168.935 160.246 171.256 162.029 172.116C163.817 172.976 166.146 172.053 167.229 170.051C168.317 168.048 167.75 165.731 165.963 164.871Z" fill="#E8A81B"/>
<path d="M162.908 184.573C162.337 184.573 161.758 184.447 161.212 184.188L158.471 182.865L160.167 179.739L166.233 182.657C165.854 183.359 165.258 183.886 164.562 184.208C164.05 184.447 163.483 184.573 162.908 184.573ZM167.058 181.133L160.996 178.215L161.487 177.308L167.554 180.23L167.058 181.133ZM170.758 174.319L174.687 167.078L168.621 164.16L169.179 163.131L175.246 166.049L176.325 164.062L170.758 174.319ZM176.325 164.062L170.258 161.14L174.537 153.254L176.087 155.756C176.917 157.099 177.333 158.607 177.333 160.115C177.333 161.466 176.996 162.817 176.325 164.062Z" fill="#E58E1A"/>
<path d="M175.246 166.049L169.179 163.131L170.258 161.14L176.325 164.062L175.246 166.049Z" fill="#E36F19"/>
<path d="M167.554 180.23L161.488 177.308L162 176.361L168.067 179.279L167.554 180.23ZM168.446 178.584L168.892 177.756L162.829 174.838L164.167 172.368C165.383 172.136 166.55 171.303 167.229 170.051C167.908 168.798 167.942 167.419 167.433 166.351L168.621 164.16L174.688 167.078L170.758 174.319L168.446 178.584Z" fill="#AB1B2A"/>
<path d="M166.233 182.657L160.167 179.739L160.996 178.215L167.058 181.133L166.233 182.657Z" fill="#E36F19"/>
<path d="M168.067 179.279L162 176.361L162.829 174.838L168.892 177.756L168.446 178.584L168.067 179.279Z" fill="#8E1822"/>
<path d="M164.167 172.368L167.433 166.351C167.942 167.419 167.908 168.798 167.229 170.051C166.55 171.303 165.383 172.136 164.167 172.368Z" fill="#E58E1A"/>
<mask id="mask0_114_2151" style="mask-type:luminance" maskUnits="userSpaceOnUse" x="0" y="230" width="400" height="7">
<path d="M0 230.221H400V236.355H0V230.221Z" fill="white"/>
</mask>
<g mask="url(#mask0_114_2151)">
<path d="M399.904 233.485C399.904 231.894 398.533 230.606 396.85 230.606H3.15414C1.46664 230.606 0.0999756 231.894 0.0999756 233.485C0.0999756 235.075 1.46664 236.363 3.15414 236.363H396.85C398.533 236.363 399.904 235.075 399.904 233.485Z" fill="#48597E"/>
</g>
</g>
<defs>
<clipPath id="clip0_114_2151">
<rect width="400" height="377" fill="white"/>
</clipPath>
</defs>
</svg>
