<svg xmlns="http://www.w3.org/2000/svg" xmlns:xlink="http://www.w3.org/1999/xlink" width="500" zoomAndPan="magnify" viewBox="0 0 375 374.999991" height="500" preserveAspectRatio="xMidYMid meet" version="1.0"><defs><clipPath id="d8fa2f0cc8"><path d="M 8 52.625 L 368 52.625 L 368 322.625 L 8 322.625 Z M 8 52.625 " clip-rule="nonzero"/></clipPath></defs><g clip-path="url(#d8fa2f0cc8)"><path fill="#ffffff" d="M 290.949219 96.105469 L 305.847656 81.207031 C 306.203125 80.847656 306.523438 80.457031 306.804688 80.039062 C 307.085938 79.617188 307.324219 79.171875 307.519531 78.703125 C 307.710938 78.234375 307.859375 77.753906 307.957031 77.257812 C 308.054688 76.761719 308.105469 76.257812 308.105469 75.75 C 308.105469 75.246094 308.054688 74.742188 307.957031 74.246094 C 307.859375 73.75 307.710938 73.269531 307.519531 72.800781 C 307.324219 72.332031 307.085938 71.886719 306.804688 71.464844 C 306.523438 71.046875 306.203125 70.65625 305.847656 70.296875 C 305.488281 69.941406 305.097656 69.621094 304.675781 69.339844 C 304.257812 69.058594 303.8125 68.820312 303.34375 68.625 C 302.875 68.433594 302.394531 68.285156 301.898438 68.1875 C 301.402344 68.085938 300.898438 68.039062 300.390625 68.039062 C 299.886719 68.039062 299.382812 68.085938 298.886719 68.1875 C 298.390625 68.285156 297.910156 68.433594 297.441406 68.625 C 296.972656 68.820312 296.527344 69.058594 296.109375 69.339844 C 295.6875 69.621094 295.296875 69.9375 294.9375 70.296875 L 278.691406 86.546875 C 252.269531 67.253906 221.375 52.792969 188.039062 52.792969 C 89.785156 52.792969 12.589844 178.28125 9.351562 183.625 C 8.988281 184.226562 8.710938 184.867188 8.519531 185.546875 C 8.328125 186.226562 8.234375 186.917969 8.234375 187.625 C 8.234375 188.328125 8.328125 189.023438 8.519531 189.699219 C 8.710938 190.378906 8.988281 191.019531 9.351562 191.625 C 19.777344 208.128906 31.382812 223.753906 44.175781 238.5 C 56.96875 253.242188 70.796875 266.9375 85.667969 279.585938 L 70.234375 295.023438 C 69.875 295.378906 69.554688 295.769531 69.273438 296.191406 C 68.992188 296.613281 68.753906 297.054688 68.558594 297.523438 C 68.363281 297.992188 68.21875 298.476562 68.117188 298.972656 C 68.019531 299.46875 67.96875 299.96875 67.96875 300.476562 C 67.96875 300.984375 68.019531 301.484375 68.117188 301.984375 C 68.214844 302.480469 68.359375 302.964844 68.554688 303.429688 C 68.75 303.898438 68.988281 304.34375 69.269531 304.765625 C 69.550781 305.1875 69.871094 305.578125 70.226562 305.9375 C 70.585938 306.292969 70.976562 306.613281 71.398438 306.894531 C 71.820312 307.175781 72.261719 307.414062 72.730469 307.609375 C 73.199219 307.800781 73.683594 307.949219 74.179688 308.046875 C 74.675781 308.144531 75.179688 308.195312 75.6875 308.195312 C 76.191406 308.195312 76.695312 308.144531 77.191406 308.046875 C 77.6875 307.945312 78.171875 307.800781 78.640625 307.605469 C 79.105469 307.410156 79.550781 307.171875 79.972656 306.890625 C 80.394531 306.609375 80.785156 306.289062 81.140625 305.929688 L 97.960938 289.105469 C 124.257812 308.195312 154.945312 322.453125 188.039062 322.453125 C 286.292969 322.453125 363.492188 196.964844 366.726562 191.625 C 367.09375 191.019531 367.371094 190.378906 367.558594 189.699219 C 367.75 189.023438 367.84375 188.328125 367.84375 187.625 C 367.84375 186.917969 367.75 186.226562 367.558594 185.546875 C 367.371094 184.867188 367.09375 184.226562 366.726562 183.625 C 356.363281 167.21875 344.832031 151.679688 332.132812 137.011719 C 319.429688 122.339844 305.703125 108.707031 290.949219 96.105469 Z M 25.101562 187.621094 C 38.996094 166.40625 107.660156 68.222656 188.039062 68.222656 C 195.226562 68.550781 202.34375 69.433594 209.390625 70.863281 C 216.4375 72.296875 223.335938 74.265625 230.078125 76.769531 C 236.820312 79.277344 243.328125 82.285156 249.605469 85.800781 C 255.878906 89.316406 261.847656 93.292969 267.503906 97.734375 L 228.253906 136.988281 C 226.714844 135.765625 225.125 134.609375 223.484375 133.53125 C 221.84375 132.449219 220.15625 131.445312 218.421875 130.519531 C 216.6875 129.59375 214.914062 128.746094 213.105469 127.984375 C 211.292969 127.21875 209.453125 126.535156 207.578125 125.941406 C 205.707031 125.34375 203.808594 124.832031 201.890625 124.410156 C 199.972656 123.984375 198.039062 123.648438 196.085938 123.402344 C 194.136719 123.15625 192.179688 122.996094 190.214844 122.929688 C 188.25 122.859375 186.289062 122.878906 184.324219 122.988281 C 182.363281 123.101562 180.410156 123.300781 178.464844 123.589844 C 176.519531 123.875 174.59375 124.253906 172.683594 124.71875 C 170.773438 125.183594 168.890625 125.730469 167.027344 126.367188 C 165.167969 127.003906 163.34375 127.722656 161.546875 128.527344 C 159.753906 129.332031 158 130.214844 156.285156 131.175781 C 154.574219 132.140625 152.90625 133.179688 151.289062 134.292969 C 149.667969 135.40625 148.105469 136.59375 146.59375 137.851562 C 145.082031 139.109375 143.632812 140.433594 142.242188 141.824219 C 140.851562 143.214844 139.53125 144.664062 138.273438 146.175781 C 137.015625 147.683594 135.828125 149.25 134.714844 150.871094 C 133.597656 152.488281 132.558594 154.15625 131.597656 155.867188 C 130.632812 157.582031 129.75 159.335938 128.949219 161.128906 C 128.144531 162.925781 127.425781 164.75 126.789062 166.613281 C 126.152344 168.472656 125.601562 170.355469 125.136719 172.265625 C 124.675781 174.175781 124.296875 176.105469 124.007812 178.046875 C 123.722656 179.992188 123.523438 181.945312 123.410156 183.910156 C 123.300781 185.871094 123.28125 187.835938 123.347656 189.800781 C 123.417969 191.765625 123.574219 193.722656 123.824219 195.671875 C 124.070312 197.621094 124.40625 199.558594 124.828125 201.476562 C 125.253906 203.394531 125.765625 205.292969 126.359375 207.164062 C 126.957031 209.039062 127.636719 210.878906 128.402344 212.691406 C 129.167969 214.5 130.015625 216.273438 130.941406 218.007812 C 131.867188 219.742188 132.871094 221.429688 133.949219 223.070312 C 135.03125 224.714844 136.183594 226.304688 137.410156 227.839844 L 96.773438 268.480469 C 82.960938 256.78125 70.054688 244.15625 58.046875 230.613281 C 46.039062 217.066406 35.058594 202.734375 25.101562 187.621094 Z M 237.34375 187.625 C 237.347656 189.878906 237.195312 192.125 236.890625 194.359375 C 236.585938 196.59375 236.128906 198.796875 235.523438 200.96875 C 234.914062 203.140625 234.160156 205.261719 233.261719 207.328125 C 232.363281 209.398438 231.328125 211.394531 230.152344 213.320312 C 228.980469 215.246094 227.679688 217.082031 226.253906 218.832031 C 224.828125 220.578125 223.289062 222.21875 221.640625 223.753906 C 219.988281 225.289062 218.238281 226.707031 216.390625 228 C 214.546875 229.296875 212.621094 230.460938 210.613281 231.492188 C 208.609375 232.519531 206.542969 233.410156 204.414062 234.15625 C 202.285156 234.902344 200.117188 235.5 197.90625 235.949219 C 195.695312 236.398438 193.464844 236.691406 191.214844 236.832031 C 188.964844 236.976562 186.714844 236.960938 184.464844 236.792969 C 182.214844 236.625 179.988281 236.304688 177.785156 235.832031 C 175.582031 235.359375 173.417969 234.738281 171.296875 233.964844 C 169.179688 233.195312 167.121094 232.28125 165.128906 231.230469 C 163.136719 230.175781 161.222656 228.988281 159.390625 227.671875 L 167.519531 219.542969 C 168.421875 220.128906 169.347656 220.675781 170.296875 221.183594 C 171.246094 221.6875 172.214844 222.15625 173.203125 222.578125 C 174.191406 223.003906 175.195312 223.386719 176.214844 223.722656 C 177.238281 224.0625 178.269531 224.359375 179.316406 224.609375 C 180.363281 224.859375 181.417969 225.066406 182.480469 225.226562 C 183.542969 225.386719 184.613281 225.503906 185.683594 225.574219 C 186.757812 225.644531 187.832031 225.667969 188.910156 225.644531 C 189.984375 225.625 191.054688 225.558594 192.125 225.445312 C 193.195312 225.332031 194.257812 225.175781 195.316406 224.972656 C 196.371094 224.769531 197.417969 224.519531 198.453125 224.230469 C 199.488281 223.9375 200.507812 223.601562 201.515625 223.222656 C 202.519531 222.84375 203.507812 222.421875 204.480469 221.960938 C 205.453125 221.496094 206.402344 220.992188 207.328125 220.449219 C 208.257812 219.90625 209.160156 219.320312 210.039062 218.699219 C 210.917969 218.082031 211.765625 217.421875 212.589844 216.730469 C 213.410156 216.035156 214.203125 215.308594 214.964844 214.550781 C 215.722656 213.789062 216.449219 212.996094 217.144531 212.175781 C 217.835938 211.351562 218.492188 210.5 219.113281 209.625 C 219.734375 208.746094 220.316406 207.839844 220.863281 206.914062 C 221.40625 205.984375 221.910156 205.035156 222.371094 204.066406 C 222.835938 203.09375 223.257812 202.105469 223.636719 201.097656 C 224.015625 200.09375 224.351562 199.070312 224.640625 198.035156 C 224.933594 197 225.183594 195.957031 225.386719 194.898438 C 225.589844 193.84375 225.746094 192.78125 225.859375 191.710938 C 225.972656 190.640625 226.039062 189.566406 226.058594 188.492188 C 226.082031 187.417969 226.054688 186.34375 225.984375 185.269531 C 225.917969 184.195312 225.800781 183.128906 225.640625 182.0625 C 225.476562 181 225.273438 179.945312 225.023438 178.898438 C 224.769531 177.851562 224.476562 176.820312 224.136719 175.800781 C 223.796875 174.777344 223.417969 173.773438 222.992188 172.785156 C 222.566406 171.796875 222.101562 170.828125 221.597656 169.878906 C 221.089844 168.929688 220.542969 168.003906 219.957031 167.101562 L 228.085938 158.972656 C 229.582031 161.046875 230.90625 163.222656 232.058594 165.503906 C 233.214844 167.78125 234.183594 170.136719 234.96875 172.570312 C 235.753906 175 236.347656 177.480469 236.746094 180.003906 C 237.144531 182.527344 237.34375 185.070312 237.34375 187.625 Z M 138.738281 187.625 C 138.734375 185.355469 138.886719 183.09375 139.195312 180.84375 C 139.5 178.597656 139.964844 176.378906 140.578125 174.195312 C 141.195312 172.007812 141.957031 169.878906 142.867188 167.796875 C 143.777344 165.71875 144.824219 163.710938 146.011719 161.777344 C 147.203125 159.84375 148.515625 158 149.960938 156.246094 C 151.402344 154.496094 152.960938 152.847656 154.628906 151.3125 C 156.300781 149.777344 158.070312 148.359375 159.933594 147.070312 C 161.800781 145.777344 163.746094 144.621094 165.773438 143.597656 C 167.800781 142.574219 169.886719 141.695312 172.035156 140.960938 C 174.183594 140.226562 176.371094 139.644531 178.597656 139.214844 C 180.828125 138.78125 183.074219 138.507812 185.34375 138.386719 C 187.609375 138.265625 189.875 138.300781 192.132812 138.496094 C 194.394531 138.6875 196.632812 139.039062 198.847656 139.539062 C 201.0625 140.042969 203.230469 140.695312 205.351562 141.5 C 207.476562 142.300781 209.53125 143.246094 211.523438 144.335938 C 213.519531 145.421875 215.425781 146.640625 217.25 147.992188 L 209.195312 156.050781 C 208.289062 155.441406 207.359375 154.871094 206.40625 154.34375 C 205.449219 153.816406 204.476562 153.332031 203.480469 152.886719 C 202.484375 152.441406 201.46875 152.042969 200.441406 151.6875 C 199.410156 151.328125 198.367188 151.015625 197.308594 150.75 C 196.25 150.484375 195.183594 150.261719 194.105469 150.085938 C 193.03125 149.914062 191.949219 149.785156 190.863281 149.703125 C 189.773438 149.621094 188.683594 149.585938 187.59375 149.597656 C 186.503906 149.609375 185.417969 149.667969 184.332031 149.773438 C 183.246094 149.878906 182.167969 150.03125 181.09375 150.230469 C 180.023438 150.429688 178.960938 150.671875 177.910156 150.960938 C 176.859375 151.253906 175.820312 151.585938 174.796875 151.964844 C 173.777344 152.34375 172.769531 152.769531 171.785156 153.234375 C 170.800781 153.699219 169.835938 154.207031 168.890625 154.753906 C 167.949219 155.304688 167.03125 155.894531 166.140625 156.519531 C 165.25 157.148438 164.386719 157.8125 163.550781 158.515625 C 162.71875 159.21875 161.914062 159.953125 161.144531 160.726562 C 160.371094 161.496094 159.636719 162.300781 158.933594 163.132812 C 158.230469 163.96875 157.566406 164.832031 156.9375 165.722656 C 156.3125 166.617188 155.722656 167.53125 155.175781 168.476562 C 154.625 169.417969 154.117188 170.382812 153.652344 171.367188 C 153.1875 172.355469 152.765625 173.359375 152.386719 174.382812 C 152.007812 175.402344 151.671875 176.441406 151.382812 177.492188 C 151.089844 178.542969 150.847656 179.605469 150.648438 180.675781 C 150.449219 181.75 150.296875 182.828125 150.191406 183.914062 C 150.085938 185 150.027344 186.089844 150.015625 187.179688 C 150.003906 188.269531 150.039062 189.359375 150.121094 190.445312 C 150.203125 191.535156 150.332031 192.617188 150.507812 193.691406 C 150.679688 194.769531 150.902344 195.835938 151.167969 196.894531 C 151.4375 197.949219 151.746094 198.996094 152.105469 200.023438 C 152.460938 201.054688 152.863281 202.070312 153.304688 203.066406 C 153.75 204.0625 154.234375 205.035156 154.761719 205.992188 C 155.292969 206.945312 155.859375 207.875 156.46875 208.78125 L 148.414062 216.835938 C 146.851562 214.738281 145.46875 212.53125 144.265625 210.210938 C 143.058594 207.890625 142.042969 205.492188 141.222656 203.007812 C 140.398438 200.527344 139.78125 197.996094 139.363281 195.417969 C 138.945312 192.835938 138.738281 190.238281 138.738281 187.625 Z M 210.636719 187.625 C 210.636719 188.363281 210.601562 189.101562 210.527344 189.839844 C 210.453125 190.574219 210.34375 191.304688 210.199219 192.03125 C 210.054688 192.757812 209.875 193.472656 209.660156 194.179688 C 209.445312 194.890625 209.195312 195.585938 208.910156 196.269531 C 208.628906 196.953125 208.3125 197.621094 207.960938 198.273438 C 207.613281 198.925781 207.234375 199.558594 206.820312 200.171875 C 206.410156 200.789062 205.96875 201.382812 205.5 201.953125 C 205.03125 202.527344 204.535156 203.074219 204.011719 203.597656 C 203.488281 204.121094 202.941406 204.617188 202.367188 205.085938 C 201.796875 205.554688 201.203125 205.996094 200.589844 206.40625 C 199.972656 206.820312 199.339844 207.199219 198.6875 207.546875 C 198.035156 207.898438 197.367188 208.214844 196.683594 208.496094 C 196 208.78125 195.304688 209.03125 194.597656 209.246094 C 193.890625 209.460938 193.171875 209.640625 192.445312 209.785156 C 191.722656 209.929688 190.992188 210.039062 190.253906 210.113281 C 189.519531 210.1875 188.78125 210.222656 188.039062 210.222656 C 184.832031 210.214844 181.765625 209.546875 178.839844 208.222656 L 208.636719 178.425781 C 209.964844 181.347656 210.628906 184.414062 210.636719 187.625 Z M 165.441406 187.625 C 165.441406 186.882812 165.480469 186.144531 165.550781 185.410156 C 165.625 184.671875 165.734375 183.941406 165.878906 183.21875 C 166.023438 182.492188 166.207031 181.773438 166.421875 181.066406 C 166.636719 180.359375 166.886719 179.664062 167.167969 178.980469 C 167.453125 178.296875 167.769531 177.628906 168.117188 176.976562 C 168.46875 176.324219 168.847656 175.691406 169.257812 175.074219 C 169.667969 174.460938 170.109375 173.867188 170.578125 173.292969 C 171.050781 172.722656 171.546875 172.175781 172.070312 171.652344 C 172.589844 171.128906 173.140625 170.632812 173.710938 170.164062 C 174.28125 169.691406 174.875 169.253906 175.492188 168.839844 C 176.105469 168.429688 176.738281 168.050781 177.390625 167.699219 C 178.042969 167.351562 178.710938 167.035156 179.394531 166.75 C 180.078125 166.46875 180.773438 166.21875 181.484375 166.003906 C 182.191406 165.789062 182.90625 165.609375 183.632812 165.460938 C 184.359375 165.316406 185.089844 165.207031 185.824219 165.136719 C 186.5625 165.0625 187.300781 165.023438 188.039062 165.023438 C 191.5 165.042969 194.777344 165.828125 197.875 167.371094 L 167.789062 197.457031 C 166.246094 194.363281 165.460938 191.085938 165.441406 187.625 Z M 188.039062 307.027344 C 180.914062 306.707031 173.851562 305.839844 166.859375 304.429688 C 159.867188 303.015625 153.023438 301.078125 146.332031 298.609375 C 139.636719 296.140625 133.171875 293.171875 126.9375 289.703125 C 120.703125 286.234375 114.773438 282.308594 109.144531 277.925781 L 148.386719 238.679688 C 149.925781 239.878906 151.515625 241.007812 153.15625 242.0625 C 154.792969 243.121094 156.480469 244.101562 158.207031 245.003906 C 159.9375 245.90625 161.703125 246.730469 163.507812 247.476562 C 165.308594 248.21875 167.144531 248.882812 169.007812 249.457031 C 170.871094 250.035156 172.757812 250.527344 174.664062 250.9375 C 176.574219 251.34375 178.496094 251.664062 180.433594 251.894531 C 182.367188 252.128906 184.3125 252.273438 186.261719 252.332031 C 188.210938 252.386719 190.160156 252.355469 192.109375 252.238281 C 194.054688 252.117188 195.992188 251.910156 197.921875 251.613281 C 199.851562 251.320312 201.761719 250.9375 203.65625 250.46875 C 205.550781 250.003906 207.417969 249.449219 209.261719 248.8125 C 211.105469 248.175781 212.917969 247.453125 214.695312 246.652344 C 216.476562 245.851562 218.214844 244.972656 219.914062 244.011719 C 221.613281 243.054688 223.265625 242.019531 224.867188 240.910156 C 226.472656 239.800781 228.027344 238.621094 229.523438 237.375 C 231.023438 236.125 232.460938 234.808594 233.84375 233.429688 C 235.222656 232.050781 236.535156 230.609375 237.785156 229.113281 C 239.035156 227.613281 240.214844 226.0625 241.320312 224.457031 C 242.429688 222.851562 243.464844 221.199219 244.421875 219.5 C 245.382812 217.800781 246.261719 216.0625 247.0625 214.28125 C 247.867188 212.503906 248.585938 210.691406 249.222656 208.847656 C 249.859375 207.003906 250.414062 205.136719 250.882812 203.242188 C 251.347656 201.347656 251.730469 199.4375 252.027344 197.507812 C 252.320312 195.578125 252.527344 193.640625 252.648438 191.691406 C 252.765625 189.746094 252.796875 187.796875 252.742188 185.847656 C 252.683594 183.894531 252.539062 181.953125 252.308594 180.015625 C 252.074219 178.078125 251.753906 176.15625 251.347656 174.246094 C 250.941406 172.339844 250.449219 170.453125 249.871094 168.589844 C 249.292969 166.726562 248.632812 164.894531 247.886719 163.089844 C 247.144531 161.285156 246.320312 159.519531 245.414062 157.789062 C 244.511719 156.0625 243.53125 154.375 242.476562 152.734375 C 241.417969 151.09375 240.289062 149.507812 239.089844 147.96875 L 279.84375 107.210938 C 293.542969 118.863281 306.347656 131.425781 318.261719 144.898438 C 330.179688 158.367188 341.082031 172.609375 350.980469 187.628906 C 337.085938 208.84375 268.417969 307.027344 188.039062 307.027344 Z M 188.039062 307.027344 " fill-opacity="1" fill-rule="nonzero"/></g></svg>