<svg xmlns="http://www.w3.org/2000/svg" xmlns:xlink="http://www.w3.org/1999/xlink" width="500" zoomAndPan="magnify" viewBox="0 0 375 374.999991" height="500" preserveAspectRatio="xMidYMid meet" version="1.0"><defs><clipPath id="1ba70a12ae"><path d="M 115 129.375 L 259 129.375 L 259 245.625 L 115 245.625 Z M 115 129.375 " clip-rule="nonzero"/></clipPath><clipPath id="976e7ef196"><path d="M 186.75 129.53125 C 137.164062 129.53125 93.859375 152.855469 70.710938 187.480469 C 93.859375 222.132812 137.160156 245.453125 186.75 245.453125 C 236.320312 245.453125 279.636719 222.132812 302.800781 187.480469 C 279.636719 152.851562 236.320312 129.53125 186.75 129.53125 Z M 186.75 129.53125 " clip-rule="nonzero"/></clipPath><clipPath id="4b31b29f32"><path d="M 149 141 L 224 141 L 224 217 L 149 217 Z M 149 141 " clip-rule="nonzero"/></clipPath><clipPath id="a40e26edf5"><path d="M 186.75 129.53125 C 137.164062 129.53125 93.859375 152.855469 70.710938 187.480469 C 93.859375 222.132812 137.160156 245.453125 186.75 245.453125 C 236.320312 245.453125 279.636719 222.132812 302.800781 187.480469 C 279.636719 152.851562 236.320312 129.53125 186.75 129.53125 Z M 186.75 129.53125 " clip-rule="nonzero"/></clipPath><clipPath id="2a73fd2697"><path d="M 166 158 L 185 158 L 185 178 L 166 178 Z M 166 158 " clip-rule="nonzero"/></clipPath><clipPath id="d3828d2139"><path d="M 186.75 129.53125 C 137.164062 129.53125 93.859375 152.855469 70.710938 187.480469 C 93.859375 222.132812 137.160156 245.453125 186.75 245.453125 C 236.320312 245.453125 279.636719 222.132812 302.800781 187.480469 C 279.636719 152.851562 236.320312 129.53125 186.75 129.53125 Z M 186.75 129.53125 " clip-rule="nonzero"/></clipPath><clipPath id="e7c6173cb9"><path d="M 131 129.375 L 171 129.375 L 171 163 L 131 163 Z M 131 129.375 " clip-rule="nonzero"/></clipPath><clipPath id="f89b83ad05"><path d="M 186.75 129.53125 C 137.164062 129.53125 93.859375 152.855469 70.710938 187.480469 C 93.859375 222.132812 137.160156 245.453125 186.75 245.453125 C 236.320312 245.453125 279.636719 222.132812 302.800781 187.480469 C 279.636719 152.851562 236.320312 129.53125 186.75 129.53125 Z M 186.75 129.53125 " clip-rule="nonzero"/></clipPath><clipPath id="6ca9813ef2"><path d="M 350 202 L 373.5 202 L 373.5 209 L 350 209 Z M 350 202 " clip-rule="nonzero"/></clipPath><clipPath id="ecbd8c37f6"><path d="M 350 166 L 373.5 166 L 373.5 173 L 350 173 Z M 350 166 " clip-rule="nonzero"/></clipPath></defs><path fill="#f77b55" d="M 186.75 86.953125 C 126.820312 86.953125 77.074219 130.40625 67.296875 187.488281 C 77.074219 244.582031 126.820312 288.03125 186.75 288.03125 C 246.679688 288.03125 296.414062 244.582031 306.203125 187.488281 C 296.414062 130.40625 246.679688 86.953125 186.75 86.953125 Z M 186.75 86.953125 " fill-opacity="1" fill-rule="nonzero"/><path fill="#ffffff" d="M 186.75 129.53125 C 137.164062 129.53125 93.859375 152.855469 70.710938 187.480469 C 93.859375 222.132812 137.160156 245.453125 186.75 245.453125 C 236.320312 245.453125 279.636719 222.132812 302.800781 187.480469 C 279.636719 152.851562 236.320312 129.53125 186.75 129.53125 Z M 186.75 129.53125 " fill-opacity="1" fill-rule="nonzero"/><g clip-path="url(#1ba70a12ae)"><g clip-path="url(#976e7ef196)"><path fill="#92deeb" d="M 186.75 107.828125 C 147.332031 107.828125 115.347656 139.773438 115.347656 179.15625 C 115.347656 218.554688 147.332031 250.460938 186.75 250.460938 C 226.175781 250.460938 258.148438 218.554688 258.148438 179.15625 C 258.148438 139.773438 226.175781 107.828125 186.75 107.828125 Z M 186.75 107.828125 " fill-opacity="1" fill-rule="nonzero"/></g></g><g clip-path="url(#4b31b29f32)"><g clip-path="url(#a40e26edf5)"><path fill="#232e38" d="M 186.75 141.945312 C 166.199219 141.945312 149.507812 158.621094 149.507812 179.15625 C 149.507812 199.691406 166.203125 216.382812 186.75 216.382812 C 207.308594 216.382812 223.996094 199.691406 223.996094 179.15625 C 223.996094 158.621094 207.308594 141.945312 186.75 141.945312 Z M 186.75 141.945312 " fill-opacity="1" fill-rule="nonzero"/></g></g><g clip-path="url(#2a73fd2697)"><g clip-path="url(#d3828d2139)"><path fill="#ffffff" d="M 182.757812 161.066406 C 186.003906 164.296875 185.46875 170.078125 181.546875 173.96875 C 177.664062 177.859375 171.863281 178.417969 168.640625 175.1875 C 165.398438 171.945312 165.941406 166.179688 169.855469 162.257812 C 173.742188 158.371094 179.515625 157.816406 182.757812 161.066406 Z M 182.757812 161.066406 " fill-opacity="1" fill-rule="nonzero"/></g></g><g clip-path="url(#e7c6173cb9)"><g clip-path="url(#f89b83ad05)"><path fill="#ffffff" d="M 165.726562 128.777344 C 172.46875 135.488281 171.367188 147.539062 163.1875 155.644531 C 155.109375 163.738281 143.035156 164.890625 136.316406 158.171875 C 129.574219 151.433594 130.6875 139.410156 138.84375 131.25 C 146.945312 123.167969 158.957031 122.003906 165.726562 128.777344 Z M 165.726562 128.777344 " fill-opacity="1" fill-rule="nonzero"/></g></g><path fill="#232e38" d="M 186.75 289.992188 C 126.550781 289.992188 75.5 247.023438 65.363281 187.820312 C 65.324219 187.597656 65.324219 187.378906 65.363281 187.15625 C 75.5 127.960938 126.550781 84.992188 186.75 84.992188 C 246.933594 84.992188 297.984375 127.957031 308.136719 187.15625 C 308.175781 187.378906 308.175781 187.597656 308.136719 187.820312 C 297.988281 247.023438 246.933594 289.992188 186.75 289.992188 Z M 69.285156 187.488281 C 79.238281 244.628906 128.582031 286.066406 186.75 286.066406 C 244.902344 286.066406 294.25 244.625 304.210938 187.488281 C 294.25 130.351562 244.902344 88.914062 186.75 88.914062 C 128.582031 88.914062 79.238281 130.351562 69.285156 187.488281 Z M 69.285156 187.488281 " fill-opacity="1" fill-rule="nonzero"/><path fill="#232e38" d="M 186.75 247.414062 C 138.417969 247.414062 93.328125 224.867188 69.078125 188.566406 C 68.640625 187.910156 68.640625 187.046875 69.078125 186.390625 C 93.332031 150.109375 138.425781 127.570312 186.75 127.570312 C 235.066406 127.570312 280.164062 150.109375 304.433594 186.390625 C 304.871094 187.050781 304.871094 187.910156 304.433594 188.566406 C 280.167969 224.867188 235.074219 247.414062 186.75 247.414062 Z M 73.082031 187.480469 C 96.78125 222.066406 140.195312 243.492188 186.75 243.492188 C 233.292969 243.492188 276.714844 222.058594 300.429688 187.480469 C 276.707031 152.914062 233.285156 131.492188 186.75 131.492188 C 140.207031 131.492188 96.789062 152.914062 73.082031 187.480469 Z M 73.082031 187.480469 " fill-opacity="1" fill-rule="nonzero"/><path fill="#232e38" d="M 152.203125 243.496094 C 151.871094 243.496094 151.519531 243.414062 151.230469 243.253906 C 127.878906 230.339844 113.375 205.78125 113.375 179.152344 C 113.375 165.742188 117.03125 152.640625 123.949219 141.273438 C 124.511719 140.351562 125.722656 140.054688 126.648438 140.621094 C 127.574219 141.179688 127.867188 142.386719 127.304688 143.3125 C 120.757812 154.066406 117.296875 166.457031 117.296875 179.152344 C 117.296875 204.328125 131 227.554688 153.0625 239.78125 C 153.707031 240.105469 154.152344 240.769531 154.152344 241.535156 C 154.152344 242.617188 153.285156 243.496094 152.203125 243.496094 Z M 152.203125 243.496094 " fill-opacity="1" fill-rule="nonzero"/><path fill="#232e38" d="M 221.351562 243.496094 C 220.660156 243.496094 219.988281 243.132812 219.632812 242.484375 C 219.109375 241.542969 219.449219 240.347656 220.394531 239.820312 C 242.464844 227.605469 256.175781 204.355469 256.175781 179.152344 C 256.175781 166.464844 252.714844 154.066406 246.167969 143.285156 C 245.601562 142.359375 245.902344 141.152344 246.828125 140.589844 C 247.753906 140.03125 248.960938 140.324219 249.523438 141.25 C 256.445312 152.640625 260.101562 165.75 260.101562 179.152344 C 260.101562 205.78125 245.617188 230.34375 222.300781 243.253906 C 221.996094 243.421875 221.667969 243.496094 221.351562 243.496094 Z M 221.351562 243.496094 " fill-opacity="1" fill-rule="nonzero"/><path fill="#232e38" d="M 186.75 218.347656 C 165.132812 218.347656 147.542969 200.765625 147.542969 179.152344 C 147.542969 172.582031 149.140625 166.300781 152.289062 160.492188 C 152.804688 159.539062 154 159.1875 154.949219 159.699219 C 155.902344 160.21875 156.257812 161.40625 155.742188 162.355469 C 152.90625 167.585938 151.46875 173.238281 151.46875 179.152344 C 151.46875 198.605469 167.296875 214.425781 186.75 214.425781 C 206.207031 214.425781 222.035156 198.605469 222.035156 179.152344 C 222.035156 159.714844 206.207031 143.902344 186.75 143.902344 C 180.839844 143.902344 175.183594 145.335938 169.9375 148.175781 C 168.988281 148.691406 167.792969 148.332031 167.277344 147.382812 C 166.765625 146.433594 167.121094 145.242188 168.074219 144.726562 C 173.898438 141.574219 180.183594 139.980469 186.75 139.980469 C 208.375 139.980469 225.960938 157.550781 225.960938 179.152344 C 225.957031 200.765625 208.371094 218.347656 186.75 218.347656 Z M 186.75 218.347656 " fill-opacity="1" fill-rule="nonzero"/><path fill="#232e38" d="M 147.507812 164.492188 C 142.671875 164.492188 138.179688 162.785156 134.933594 159.546875 C 129.734375 154.386719 128.484375 146.03125 131.757812 138.269531 C 132.175781 137.269531 133.332031 136.804688 134.332031 137.222656 C 135.328125 137.644531 135.796875 138.792969 135.375 139.785156 C 132.730469 146.070312 133.644531 152.734375 137.707031 156.765625 C 141.457031 160.511719 147.460938 161.582031 153.382812 159.566406 C 156.472656 158.523438 159.386719 156.691406 161.8125 154.265625 C 164.261719 151.816406 166.105469 148.894531 167.148438 145.820312 C 168.890625 140.695312 168.378906 135.613281 165.75 131.867188 C 165.125 130.984375 165.339844 129.757812 166.226562 129.136719 C 167.113281 128.519531 168.339844 128.730469 168.960938 129.617188 C 172.320312 134.394531 173.011719 140.761719 170.863281 147.078125 C 169.628906 150.714844 167.460938 154.160156 164.585938 157.035156 C 161.734375 159.886719 158.296875 162.046875 154.644531 163.277344 C 152.253906 164.097656 149.839844 164.492188 147.507812 164.492188 Z M 147.507812 164.492188 " fill-opacity="1" fill-rule="nonzero"/><path fill="#232e38" d="M 186.75 340.867188 C 102.09375 340.867188 33.226562 272.0625 33.226562 187.496094 C 33.226562 102.925781 102.09375 34.121094 186.75 34.121094 C 271.40625 34.121094 340.273438 102.925781 340.273438 187.496094 C 340.273438 272.0625 271.40625 340.867188 186.75 340.867188 Z M 186.75 38.042969 C 104.261719 38.042969 37.148438 105.085938 37.148438 187.496094 C 37.148438 269.902344 104.257812 336.941406 186.75 336.941406 C 269.242188 336.941406 336.351562 269.902344 336.351562 187.496094 C 336.351562 105.085938 269.238281 38.042969 186.75 38.042969 Z M 186.75 38.042969 " fill-opacity="1" fill-rule="nonzero"/><path fill="#232e38" d="M 186.75 22.808594 C 185.664062 22.808594 184.789062 21.929688 184.789062 20.851562 L 184.789062 1.960938 C 184.789062 0.878906 185.664062 0 186.75 0 C 187.835938 0 188.710938 0.878906 188.710938 1.960938 L 188.710938 20.851562 C 188.710938 21.929688 187.835938 22.808594 186.75 22.808594 Z M 186.75 22.808594 " fill-opacity="1" fill-rule="nonzero"/><path fill="#232e38" d="M 152.0625 26.449219 C 151.15625 26.449219 150.339844 25.820312 150.144531 24.894531 L 146.214844 6.421875 C 145.992188 5.359375 146.667969 4.316406 147.726562 4.09375 C 148.78125 3.867188 149.828125 4.546875 150.054688 5.605469 L 153.984375 24.078125 C 154.207031 25.140625 153.53125 26.179688 152.472656 26.40625 C 152.332031 26.4375 152.195312 26.449219 152.0625 26.449219 Z M 152.0625 26.449219 " fill-opacity="1" fill-rule="nonzero"/><path fill="#232e38" d="M 118.898438 37.214844 C 118.144531 37.214844 117.429688 36.785156 117.105469 36.050781 L 109.414062 18.796875 C 108.972656 17.8125 109.417969 16.648438 110.410156 16.210938 C 111.394531 15.765625 112.558594 16.214844 113 17.203125 L 120.6875 34.457031 C 121.128906 35.445312 120.683594 36.609375 119.695312 37.046875 C 119.433594 37.160156 119.164062 37.214844 118.898438 37.214844 Z M 118.898438 37.214844 " fill-opacity="1" fill-rule="nonzero"/><path fill="#232e38" d="M 88.695312 54.636719 C 88.089844 54.636719 87.488281 54.355469 87.105469 53.828125 L 75.992188 38.542969 C 75.355469 37.671875 75.550781 36.445312 76.425781 35.808594 C 77.304688 35.167969 78.53125 35.363281 79.167969 36.242188 L 90.28125 51.523438 C 90.917969 52.402344 90.722656 53.625 89.847656 54.261719 C 89.5 54.515625 89.097656 54.636719 88.695312 54.636719 Z M 88.695312 54.636719 " fill-opacity="1" fill-rule="nonzero"/><path fill="#232e38" d="M 62.773438 77.949219 C 62.304688 77.949219 61.835938 77.78125 61.457031 77.445312 L 47.414062 64.804688 C 46.609375 64.078125 46.546875 62.839844 47.269531 62.039062 C 47.996094 61.230469 49.234375 61.171875 50.042969 61.894531 L 64.089844 74.535156 C 64.894531 75.257812 64.957031 76.5 64.234375 77.300781 C 63.84375 77.734375 63.308594 77.949219 62.773438 77.949219 Z M 62.773438 77.949219 " fill-opacity="1" fill-rule="nonzero"/><path fill="#232e38" d="M 42.273438 106.136719 C 41.9375 106.136719 41.601562 106.050781 41.296875 105.871094 L 24.925781 96.425781 C 23.984375 95.886719 23.664062 94.6875 24.207031 93.75 C 24.75 92.8125 25.949219 92.492188 26.886719 93.03125 L 43.257812 102.480469 C 44.195312 103.019531 44.519531 104.21875 43.976562 105.15625 C 43.613281 105.785156 42.953125 106.136719 42.273438 106.136719 Z M 42.273438 106.136719 " fill-opacity="1" fill-rule="nonzero"/><path fill="#232e38" d="M 28.089844 137.964844 C 27.890625 137.964844 27.6875 137.933594 27.484375 137.867188 L 9.507812 132.03125 C 8.476562 131.695312 7.914062 130.589844 8.246094 129.5625 C 8.585938 128.53125 9.695312 127.96875 10.722656 128.300781 L 28.699219 134.136719 C 29.726562 134.472656 30.292969 135.578125 29.957031 136.609375 C 29.6875 137.4375 28.917969 137.964844 28.089844 137.964844 Z M 28.089844 137.964844 " fill-opacity="1" fill-rule="nonzero"/><path fill="#232e38" d="M 20.839844 172.042969 C 20.773438 172.042969 20.703125 172.039062 20.632812 172.03125 L 1.835938 170.058594 C 0.761719 169.945312 -0.0234375 168.980469 0.0898438 167.902344 C 0.203125 166.828125 1.140625 166.035156 2.246094 166.15625 L 21.046875 168.136719 C 22.121094 168.246094 22.90625 169.210938 22.792969 170.289062 C 22.6875 171.292969 21.832031 172.042969 20.839844 172.042969 Z M 20.839844 172.042969 " fill-opacity="1" fill-rule="nonzero"/><path fill="#232e38" d="M 2.039062 208.855469 C 1.050781 208.855469 0.195312 208.105469 0.0898438 207.097656 C -0.0234375 206.023438 0.761719 205.054688 1.835938 204.941406 L 20.632812 202.972656 C 21.734375 202.84375 22.679688 203.640625 22.792969 204.71875 C 22.90625 205.796875 22.121094 206.761719 21.046875 206.871094 L 2.246094 208.84375 C 2.175781 208.851562 2.109375 208.855469 2.039062 208.855469 Z M 2.039062 208.855469 " fill-opacity="1" fill-rule="nonzero"/><path fill="#232e38" d="M 10.113281 246.792969 C 9.285156 246.792969 8.515625 246.269531 8.246094 245.4375 C 7.914062 244.410156 8.476562 243.300781 9.507812 242.96875 L 27.484375 237.140625 C 28.507812 236.796875 29.621094 237.367188 29.957031 238.398438 C 30.292969 239.429688 29.726562 240.535156 28.699219 240.867188 L 10.722656 246.699219 C 10.519531 246.761719 10.316406 246.792969 10.113281 246.792969 Z M 10.113281 246.792969 " fill-opacity="1" fill-rule="nonzero"/><path fill="#232e38" d="M 25.910156 282.230469 C 25.230469 282.230469 24.570312 281.875 24.207031 281.25 C 23.664062 280.3125 23.988281 279.113281 24.925781 278.570312 L 41.296875 269.132812 C 42.238281 268.59375 43.433594 268.917969 43.976562 269.851562 C 44.519531 270.792969 44.195312 271.992188 43.257812 272.53125 L 26.886719 281.96875 C 26.578125 282.148438 26.238281 282.230469 25.910156 282.230469 Z M 25.910156 282.230469 " fill-opacity="1" fill-rule="nonzero"/><path fill="#232e38" d="M 48.726562 313.613281 C 48.191406 313.613281 47.65625 313.394531 47.269531 312.960938 C 46.542969 312.15625 46.609375 310.921875 47.414062 310.191406 L 61.460938 297.5625 C 62.265625 296.835938 63.503906 296.898438 64.230469 297.703125 C 64.957031 298.511719 64.890625 299.75 64.085938 300.472656 L 50.039062 313.109375 C 49.667969 313.445312 49.195312 313.613281 48.726562 313.613281 Z M 48.726562 313.613281 " fill-opacity="1" fill-rule="nonzero"/><path fill="#232e38" d="M 77.582031 339.5625 C 77.183594 339.5625 76.78125 339.445312 76.429688 339.191406 C 75.554688 338.554688 75.359375 337.332031 75.996094 336.453125 L 87.105469 321.179688 C 87.742188 320.300781 88.964844 320.105469 89.847656 320.746094 C 90.726562 321.382812 90.917969 322.609375 90.28125 323.484375 L 79.171875 338.757812 C 78.789062 339.285156 78.1875 339.5625 77.582031 339.5625 Z M 77.582031 339.5625 " fill-opacity="1" fill-rule="nonzero"/><path fill="#232e38" d="M 111.207031 358.957031 C 110.9375 358.957031 110.667969 358.902344 110.410156 358.789062 C 109.421875 358.351562 108.972656 357.1875 109.414062 356.199219 L 117.105469 338.953125 C 117.546875 337.964844 118.707031 337.515625 119.695312 337.960938 C 120.683594 338.402344 121.128906 339.5625 120.6875 340.546875 L 113 357.796875 C 112.675781 358.527344 111.957031 358.957031 111.207031 358.957031 Z M 111.207031 358.957031 " fill-opacity="1" fill-rule="nonzero"/><path fill="#232e38" d="M 148.136719 370.945312 C 148 370.945312 147.863281 370.929688 147.726562 370.902344 C 146.667969 370.675781 145.992188 369.636719 146.21875 368.578125 L 150.144531 350.113281 C 150.367188 349.054688 151.410156 348.371094 152.472656 348.601562 C 153.53125 348.828125 154.207031 349.867188 153.984375 350.925781 L 150.054688 369.390625 C 149.859375 370.3125 149.042969 370.945312 148.136719 370.945312 Z M 148.136719 370.945312 " fill-opacity="1" fill-rule="nonzero"/><path fill="#232e38" d="M 186.75 375 C 185.664062 375 184.789062 374.121094 184.789062 373.039062 L 184.789062 354.160156 C 184.789062 353.078125 185.664062 352.199219 186.75 352.199219 C 187.835938 352.199219 188.710938 353.078125 188.710938 354.160156 L 188.710938 373.039062 C 188.710938 374.121094 187.835938 375 186.75 375 Z M 186.75 375 " fill-opacity="1" fill-rule="nonzero"/><path fill="#232e38" d="M 225.359375 370.945312 C 224.457031 370.945312 223.640625 370.3125 223.445312 369.390625 L 219.515625 350.925781 C 219.289062 349.871094 219.964844 348.828125 221.027344 348.601562 C 222.078125 348.375 223.125 349.050781 223.351562 350.113281 L 227.28125 368.578125 C 227.507812 369.636719 226.832031 370.675781 225.769531 370.902344 C 225.636719 370.929688 225.5 370.945312 225.359375 370.945312 Z M 225.359375 370.945312 " fill-opacity="1" fill-rule="nonzero"/><path fill="#232e38" d="M 262.292969 358.957031 C 261.542969 358.957031 260.824219 358.527344 260.5 357.796875 L 252.8125 340.546875 C 252.371094 339.5625 252.816406 338.402344 253.804688 337.960938 C 254.789062 337.515625 255.953125 337.964844 256.394531 338.953125 L 264.085938 356.199219 C 264.527344 357.1875 264.078125 358.347656 263.089844 358.789062 C 262.832031 358.902344 262.5625 358.957031 262.292969 358.957031 Z M 262.292969 358.957031 " fill-opacity="1" fill-rule="nonzero"/><path fill="#232e38" d="M 295.917969 339.5625 C 295.3125 339.5625 294.710938 339.285156 294.328125 338.757812 L 283.21875 323.484375 C 282.578125 322.609375 282.773438 321.382812 283.648438 320.746094 C 284.527344 320.105469 285.753906 320.304688 286.390625 321.179688 L 297.5 336.449219 C 298.140625 337.328125 297.945312 338.554688 297.070312 339.1875 C 296.71875 339.441406 296.316406 339.5625 295.917969 339.5625 Z M 295.917969 339.5625 " fill-opacity="1" fill-rule="nonzero"/><path fill="#232e38" d="M 324.769531 313.613281 C 324.300781 313.613281 323.832031 313.445312 323.457031 313.109375 L 309.410156 300.480469 C 308.601562 299.753906 308.539062 298.515625 309.261719 297.710938 C 309.988281 296.90625 311.234375 296.84375 312.035156 297.5625 L 326.085938 310.191406 C 326.894531 310.917969 326.957031 312.15625 326.230469 312.960938 C 325.84375 313.394531 325.308594 313.613281 324.769531 313.613281 Z M 324.769531 313.613281 " fill-opacity="1" fill-rule="nonzero"/><path fill="#232e38" d="M 347.585938 282.230469 C 347.257812 282.230469 346.917969 282.144531 346.609375 281.964844 L 330.242188 272.53125 C 329.304688 271.988281 328.980469 270.789062 329.519531 269.855469 C 330.0625 268.917969 331.261719 268.59375 332.203125 269.132812 L 348.570312 278.570312 C 349.507812 279.109375 349.832031 280.308594 349.289062 281.25 C 348.929688 281.878906 348.269531 282.230469 347.585938 282.230469 Z M 347.585938 282.230469 " fill-opacity="1" fill-rule="nonzero"/><path fill="#232e38" d="M 363.386719 246.792969 C 363.183594 246.792969 362.980469 246.761719 362.777344 246.699219 L 344.800781 240.871094 C 343.773438 240.535156 343.207031 239.433594 343.542969 238.402344 C 343.875 237.375 344.980469 236.808594 346.015625 237.140625 L 363.992188 242.96875 C 365.023438 243.304688 365.585938 244.410156 365.25 245.4375 C 364.984375 246.269531 364.214844 246.792969 363.386719 246.792969 Z M 363.386719 246.792969 " fill-opacity="1" fill-rule="nonzero"/><g clip-path="url(#6ca9813ef2)"><path fill="#232e38" d="M 371.460938 208.855469 C 371.390625 208.855469 371.324219 208.851562 371.253906 208.84375 L 352.457031 206.875 C 351.378906 206.761719 350.597656 205.800781 350.707031 204.722656 C 350.820312 203.648438 351.765625 202.84375 352.867188 202.980469 L 371.664062 204.941406 C 372.738281 205.058594 373.523438 206.019531 373.410156 207.09375 C 373.304688 208.105469 372.449219 208.855469 371.460938 208.855469 Z M 371.460938 208.855469 " fill-opacity="1" fill-rule="nonzero"/></g><g clip-path="url(#ecbd8c37f6)"><path fill="#232e38" d="M 352.660156 172.046875 C 351.671875 172.046875 350.820312 171.300781 350.710938 170.296875 C 350.597656 169.21875 351.378906 168.253906 352.460938 168.136719 L 371.253906 166.15625 C 372.347656 166.035156 373.296875 166.820312 373.410156 167.898438 C 373.523438 168.976562 372.742188 169.941406 371.664062 170.058594 L 352.867188 172.039062 C 352.800781 172.046875 352.730469 172.046875 352.660156 172.046875 Z M 352.660156 172.046875 " fill-opacity="1" fill-rule="nonzero"/></g><path fill="#232e38" d="M 345.417969 137.96875 C 344.589844 137.96875 343.820312 137.441406 343.546875 136.613281 C 343.214844 135.582031 343.777344 134.476562 344.808594 134.144531 L 362.777344 128.300781 C 363.800781 127.960938 364.914062 128.53125 365.25 129.558594 C 365.582031 130.589844 365.019531 131.695312 363.988281 132.03125 L 346.019531 137.867188 C 345.820312 137.9375 345.617188 137.96875 345.417969 137.96875 Z M 345.417969 137.96875 " fill-opacity="1" fill-rule="nonzero"/><path fill="#232e38" d="M 331.234375 106.136719 C 330.558594 106.136719 329.898438 105.785156 329.53125 105.160156 C 328.992188 104.222656 329.3125 103.023438 330.25 102.480469 L 346.609375 93.039062 C 347.554688 92.492188 348.746094 92.816406 349.292969 93.753906 C 349.832031 94.691406 349.511719 95.890625 348.574219 96.429688 L 332.214844 105.878906 C 331.90625 106.054688 331.570312 106.136719 331.234375 106.136719 Z M 331.234375 106.136719 " fill-opacity="1" fill-rule="nonzero"/><path fill="#232e38" d="M 310.738281 77.949219 C 310.199219 77.949219 309.664062 77.734375 309.277344 77.300781 C 308.554688 76.5 308.617188 75.257812 309.421875 74.53125 L 323.457031 61.890625 C 324.265625 61.171875 325.507812 61.230469 326.234375 62.035156 C 326.957031 62.84375 326.894531 64.078125 326.089844 64.808594 L 312.050781 77.441406 C 311.671875 77.78125 311.203125 77.949219 310.738281 77.949219 Z M 310.738281 77.949219 " fill-opacity="1" fill-rule="nonzero"/><path fill="#232e38" d="M 284.8125 54.636719 C 284.414062 54.636719 284.011719 54.515625 283.664062 54.261719 C 282.785156 53.625 282.589844 52.398438 283.230469 51.523438 L 294.332031 36.246094 C 294.964844 35.371094 296.195312 35.175781 297.070312 35.8125 C 297.949219 36.449219 298.144531 37.675781 297.503906 38.550781 L 286.402344 53.824219 C 286.019531 54.355469 285.421875 54.636719 284.8125 54.636719 Z M 284.8125 54.636719 " fill-opacity="1" fill-rule="nonzero"/><path fill="#232e38" d="M 254.613281 37.210938 C 254.34375 37.210938 254.074219 37.15625 253.816406 37.042969 C 252.824219 36.605469 252.378906 35.445312 252.820312 34.453125 L 260.503906 17.207031 C 260.941406 16.21875 262.105469 15.773438 263.09375 16.214844 C 264.082031 16.652344 264.53125 17.8125 264.085938 18.800781 L 256.40625 36.046875 C 256.082031 36.777344 255.363281 37.210938 254.613281 37.210938 Z M 254.613281 37.210938 " fill-opacity="1" fill-rule="nonzero"/><path fill="#232e38" d="M 221.445312 26.445312 C 221.3125 26.445312 221.171875 26.433594 221.035156 26.398438 C 219.972656 26.175781 219.296875 25.132812 219.523438 24.074219 L 223.445312 5.609375 C 223.667969 4.550781 224.707031 3.871094 225.773438 4.097656 C 226.832031 4.324219 227.511719 5.363281 227.285156 6.421875 L 223.359375 24.890625 C 223.167969 25.8125 222.351562 26.445312 221.445312 26.445312 Z M 221.445312 26.445312 " fill-opacity="1" fill-rule="nonzero"/></svg>